<svg width="24" height="24" viewBox="0 0 24 24" fill="none" xmlns="http://www.w3.org/2000/svg">
<path d="M0.8 12C0.8 5.81483 5.81483 0.8 12 0.8C18.1852 0.8 23.2 5.81483 23.2 12C23.2 18.1852 18.1852 23.2 12 23.2C5.81483 23.2 0.8 18.1852 0.8 12Z" stroke="#EF533F" stroke-width="1.6"/>
<path d="M12 6C14.481 6 16.5 8.019 16.5 10.5C16.5 12.981 14.481 15 12 15C9.519 15 7.5 12.981 7.5 10.5C7.5 8.019 9.519 6 12 6Z" fill="#EF533F"/>
<path d="M11.9999 23C9.41988 23 7.07288 22.01 5.29688 20.399C6.14288 18.441 8.81588 17 11.9999 17C15.1839 17 17.8569 18.441 18.7029 20.399C16.9269 22.01 14.5799 23 11.9999 23Z" fill="#EF533F"/>
</svg>
