<svg width="13" height="8" viewBox="0 0 13 8" fill="none" xmlns="http://www.w3.org/2000/svg">
<path d="M6.10706 7.78029C6.27798 7.78029 6.44883 7.71193 6.56509 7.58202L11.8561 2.16114C11.9723 2.04492 12.0407 1.89453 12.0407 1.72364C12.0407 1.36816 11.774 1.09473 11.4186 1.09473C11.2477 1.09473 11.0905 1.16309 10.9742 1.27246L5.73791 6.625H6.46937L1.23303 1.27246C1.12365 1.16309 0.966428 1.09473 0.788698 1.09473C0.433227 1.09473 0.166626 1.36816 0.166626 1.72364C0.166626 1.89453 0.234986 2.04492 0.351196 2.16797L5.64221 7.58202C5.7721 7.71193 5.92932 7.78029 6.10706 7.78029Z" fill="#171616"/>
</svg>
