<svg width="22" height="22" viewBox="0 0 22 22" fill="none" xmlns="http://www.w3.org/2000/svg">
<path fill-rule="evenodd" clip-rule="evenodd" d="M20.6522 15.6289L17.9521 12.9287C17.2223 12.198 16.0373 12.198 15.3075 12.9287L13.0682 15.168C10.2586 13.9932 8.00723 11.7418 6.8324 8.93222L9.07172 6.69289C9.80148 5.96221 9.80148 4.77811 9.07172 4.04835L6.37155 1.34818C5.64087 0.617501 4.45676 0.617501 3.72608 1.34818L2.44276 2.63151C1.10843 3.9649 0.546515 5.87783 0.908145 7.72864C2.22207 14.4605 7.53897 19.7784 14.2718 21.0932C16.1226 21.4539 18.0355 20.8911 19.3689 19.5577L20.6522 18.2743C21.3829 17.5437 21.3829 16.3596 20.6522 15.6289Z" stroke="#EF533F" stroke-width="1.5" stroke-linecap="round" stroke-linejoin="round"/>
<path d="M12.8555 0.800049C17.4649 0.800049 21.2008 4.53597 21.2008 9.14537" stroke="#EF533F" stroke-width="1.5" stroke-linecap="round" stroke-linejoin="round"/>
<path d="M12.8555 4.50903C15.4156 4.50903 17.4918 6.58516 17.4918 9.14532" stroke="#EF533F" stroke-width="1.5" stroke-linecap="round" stroke-linejoin="round"/>
</svg>
