<svg width="20" height="18" viewBox="0 0 20 18" fill="none" xmlns="http://www.w3.org/2000/svg">
<path d="M10.408 0.142314C10.2897 0.0500864 10.144 0 9.994 0C9.844 0 9.6983 0.0500864 9.58 0.142314L0 7.61231L0.828667 8.66031L2 7.74698V15.9996C2.0007 16.3531 2.14141 16.6918 2.3913 16.9417C2.6412 17.1916 2.97993 17.3323 3.33333 17.333H16.6667C17.0201 17.3323 17.3588 17.1916 17.6087 16.9417C17.8586 16.6918 17.9993 16.3531 18 15.9996V7.75298L19.1713 8.66631L20 7.61831L10.408 0.142314ZM11.3333 15.9996H8.66667V10.6663H11.3333V15.9996ZM12.6667 15.9996V10.6663C12.6663 10.3128 12.5257 9.97387 12.2758 9.72389C12.0258 9.47392 11.6868 9.33333 11.3333 9.33298H8.66667C8.31315 9.33333 7.97422 9.47392 7.72425 9.72389C7.47428 9.97387 7.33369 10.3128 7.33333 10.6663V15.9996H3.33333V6.70765L10 1.51431L16.6667 6.71431V15.9996H12.6667Z" fill="#EF533F"/>
</svg>
