<svg width="24" height="24" viewBox="0 0 24 24" fill="none" xmlns="http://www.w3.org/2000/svg">
<path d="M0.8 12C0.8 5.81483 5.81483 0.8 12 0.8C18.1852 0.8 23.2 5.81483 23.2 12C23.2 18.1852 18.1852 23.2 12 23.2C5.81483 23.2 0.8 18.1852 0.8 12Z" stroke="#282828" stroke-width="1.6"/>
<path d="M12 6C14.481 6 16.5 8.019 16.5 10.5C16.5 12.981 14.481 15 12 15C9.519 15 7.5 12.981 7.5 10.5C7.5 8.019 9.519 6 12 6Z" fill="#282828"/>
<path d="M11.9999 22.9999C9.41988 22.9999 7.07288 22.0099 5.29688 20.3989C6.14288 18.4409 8.81588 16.9999 11.9999 16.9999C15.1839 16.9999 17.8569 18.4409 18.7029 20.3989C16.9269 22.0099 14.5799 22.9999 11.9999 22.9999Z" fill="#282828"/>
</svg>
